# MagicaVoxel @ Ephtracy

# group
o 

# material
mtllib pen.mtl
usemtl palette

# normals
vn -1 0 0
vn 1 0 0
vn 0 0 1
vn 0 0 -1
vn 0 -1 0
vn 0 1 0

# texcoords
vt 0.849609 0.5
vt 0.853516 0.5
vt 0.857422 0.5
vt 0.861328 0.5
vt 0.865234 0.5
vt 0.962891 0.5
vt 0.966797 0.5
vt 0.994141 0.5

# verts
v 0 0.4 -0.4
v 0 0.4 -0.5
v 0 0.5 -0.4
v 0 0.5 -0.5
v 0.4 0.5 -0.4
v 0.4 0.5 -0.5
v 0.4 0.6 -0.4
v 0.4 0.6 -0.5
v 0.7 0.5 -0.4
v 0.7 0.5 -0.5
v 0.7 0.6 -0.4
v 0.7 0.6 -0.5
v 0.8 0.4 -0.4
v 0.8 0.4 -0.5
v 0.8 0.5 -0.4
v 0.8 0.5 -0.5
v 0 0.4 -0.4
v 0 0.5 -0.4
v 0.1 0.4 -0.4
v 0.1 0.5 -0.4
v 0.2 0.4 -0.4
v 0.2 0.5 -0.4
v 0.3 0.4 -0.4
v 0.3 0.5 -0.4
v 0.4 0.4 -0.4
v 0.4 0.5 -0.4
v 0.4 0.6 -0.4
v 0.5 0.4 -0.4
v 0.5 0.5 -0.4
v 0.5 0.6 -0.4
v 0.6 0.4 -0.4
v 0.6 0.5 -0.4
v 0.6 0.6 -0.4
v 0.7 0.4 -0.4
v 0.7 0.5 -0.4
v 0.7 0.6 -0.4
v 0.8 0.4 -0.4
v 0.8 0.5 -0.4
v 0 0.4 -0.5
v 0 0.5 -0.5
v 0.1 0.4 -0.5
v 0.1 0.5 -0.5
v 0.2 0.4 -0.5
v 0.2 0.5 -0.5
v 0.3 0.4 -0.5
v 0.3 0.5 -0.5
v 0.4 0.4 -0.5
v 0.4 0.5 -0.5
v 0.4 0.6 -0.5
v 0.5 0.4 -0.5
v 0.5 0.5 -0.5
v 0.5 0.6 -0.5
v 0.6 0.4 -0.5
v 0.6 0.5 -0.5
v 0.6 0.6 -0.5
v 0.7 0.4 -0.5
v 0.7 0.5 -0.5
v 0.7 0.6 -0.5
v 0.8 0.4 -0.5
v 0.8 0.5 -0.5
v 0 0.4 -0.4
v 0.1 0.4 -0.4
v 0.2 0.4 -0.4
v 0.3 0.4 -0.4
v 0.4 0.4 -0.4
v 0.5 0.4 -0.4
v 0.6 0.4 -0.4
v 0.7 0.4 -0.4
v 0.8 0.4 -0.4
v 0 0.4 -0.5
v 0.1 0.4 -0.5
v 0.2 0.4 -0.5
v 0.3 0.4 -0.5
v 0.4 0.4 -0.5
v 0.5 0.4 -0.5
v 0.6 0.4 -0.5
v 0.7 0.4 -0.5
v 0.8 0.4 -0.5
v 0 0.5 -0.4
v 0.1 0.5 -0.4
v 0.2 0.5 -0.4
v 0.3 0.5 -0.4
v 0.4 0.5 -0.4
v 0.7 0.5 -0.4
v 0.8 0.5 -0.4
v 0 0.5 -0.5
v 0.1 0.5 -0.5
v 0.2 0.5 -0.5
v 0.3 0.5 -0.5
v 0.4 0.5 -0.5
v 0.7 0.5 -0.5
v 0.8 0.5 -0.5
v 0.4 0.6 -0.4
v 0.5 0.6 -0.4
v 0.6 0.6 -0.4
v 0.7 0.6 -0.4
v 0.4 0.6 -0.5
v 0.5 0.6 -0.5
v 0.6 0.6 -0.5
v 0.7 0.6 -0.5

# faces
f 3/7/1 2/7/1 1/7/1
f 4/7/1 2/7/1 3/7/1
f 7/6/1 6/6/1 5/6/1
f 8/6/1 6/6/1 7/6/1
f 9/6/2 10/6/2 11/6/2
f 11/6/2 10/6/2 12/6/2
f 13/8/2 14/8/2 15/8/2
f 15/8/2 14/8/2 16/8/2
f 19/7/3 18/7/3 17/7/3
f 20/7/3 18/7/3 19/7/3
f 21/1/3 20/1/3 19/1/3
f 22/1/3 20/1/3 21/1/3
f 23/2/3 22/2/3 21/2/3
f 24/2/3 22/2/3 23/2/3
f 25/3/3 24/3/3 23/3/3
f 26/3/3 24/3/3 25/3/3
f 28/4/3 26/4/3 25/4/3
f 29/6/3 27/6/3 26/6/3
f 29/4/3 26/4/3 28/4/3
f 30/6/3 27/6/3 29/6/3
f 31/5/3 29/5/3 28/5/3
f 32/7/3 30/7/3 29/7/3
f 32/5/3 29/5/3 31/5/3
f 33/7/3 30/7/3 32/7/3
f 34/6/3 32/6/3 31/6/3
f 34/6/3 33/6/3 32/6/3
f 35/6/3 33/6/3 34/6/3
f 36/6/3 33/6/3 35/6/3
f 37/8/3 35/8/3 34/8/3
f 38/8/3 35/8/3 37/8/3
f 39/7/4 40/7/4 41/7/4
f 41/7/4 40/7/4 42/7/4
f 41/1/4 42/1/4 43/1/4
f 43/1/4 42/1/4 44/1/4
f 43/2/4 44/2/4 45/2/4
f 45/2/4 44/2/4 46/2/4
f 45/3/4 46/3/4 47/3/4
f 47/3/4 46/3/4 48/3/4
f 47/4/4 48/4/4 50/4/4
f 48/6/4 49/6/4 51/6/4
f 50/4/4 48/4/4 51/4/4
f 51/6/4 49/6/4 52/6/4
f 50/5/4 51/5/4 53/5/4
f 51/7/4 52/7/4 54/7/4
f 53/5/4 51/5/4 54/5/4
f 54/7/4 52/7/4 55/7/4
f 53/6/4 54/6/4 56/6/4
f 54/6/4 55/6/4 56/6/4
f 56/6/4 55/6/4 57/6/4
f 57/6/4 55/6/4 58/6/4
f 56/8/4 57/8/4 59/8/4
f 59/8/4 57/8/4 60/8/4
f 70/7/5 62/7/5 61/7/5
f 71/1/5 63/1/5 62/1/5
f 71/7/5 62/7/5 70/7/5
f 72/2/5 64/2/5 63/2/5
f 72/1/5 63/1/5 71/1/5
f 73/3/5 65/3/5 64/3/5
f 73/2/5 64/2/5 72/2/5
f 74/4/5 66/4/5 65/4/5
f 74/3/5 65/3/5 73/3/5
f 75/5/5 67/5/5 66/5/5
f 75/4/5 66/4/5 74/4/5
f 76/6/5 68/6/5 67/6/5
f 76/5/5 67/5/5 75/5/5
f 77/8/5 69/8/5 68/8/5
f 77/6/5 68/6/5 76/6/5
f 78/8/5 69/8/5 77/8/5
f 79/7/6 80/7/6 86/7/6
f 80/1/6 81/1/6 87/1/6
f 86/7/6 80/7/6 87/7/6
f 81/2/6 82/2/6 88/2/6
f 87/1/6 81/1/6 88/1/6
f 82/3/6 83/3/6 89/3/6
f 88/2/6 82/2/6 89/2/6
f 89/3/6 83/3/6 90/3/6
f 84/8/6 85/8/6 91/8/6
f 91/8/6 85/8/6 92/8/6
f 93/6/6 94/6/6 97/6/6
f 94/7/6 95/7/6 98/7/6
f 97/6/6 94/6/6 98/6/6
f 95/6/6 96/6/6 99/6/6
f 98/7/6 95/7/6 99/7/6
f 99/6/6 96/6/6 100/6/6
