# MagicaVoxel @ Ephtracy

# group
o 

# material
mtllib Pencil.mtl
usemtl palette

# normals
vn -1 0 0
vn 1 0 0
vn 0 0 1
vn 0 0 -1
vn 0 -1 0
vn 0 1 0

# texcoords
vt 0.798828 0.5
vt 0.802734 0.5
vt 0.806641 0.5
vt 0.958984 0.5
vt 0.962891 0.5
vt 0.982422 0.5

# verts
v -0.6 0 -7.45058e-009
v -0.6 0 -0.1
v -0.6 0.1 -7.45058e-009
v -0.6 0.1 -0.1
v 0.2 0 -7.45058e-009
v 0.2 0 -0.1
v 0.2 0.1 -7.45058e-009
v 0.2 0.1 -0.1
v -0.6 0 -7.45058e-009
v -0.6 0.1 -7.45058e-009
v -0.5 0 -7.45058e-009
v -0.5 0.1 -7.45058e-009
v -0.4 0 -7.45058e-009
v -0.4 0.1 -7.45058e-009
v -0.2 0 -7.45058e-009
v -0.2 0.1 -7.45058e-009
v -5.96046e-008 0 -7.45058e-009
v -5.96046e-008 0.1 -7.45058e-009
v 0.1 0 -7.45058e-009
v 0.1 0.1 -7.45058e-009
v 0.2 0 -7.45058e-009
v 0.2 0.1 -7.45058e-009
v -0.6 0 -0.1
v -0.6 0.1 -0.1
v -0.5 0 -0.1
v -0.5 0.1 -0.1
v -0.4 0 -0.1
v -0.4 0.1 -0.1
v -0.2 0 -0.1
v -0.2 0.1 -0.1
v -5.96046e-008 0 -0.1
v -5.96046e-008 0.1 -0.1
v 0.1 0 -0.1
v 0.1 0.1 -0.1
v 0.2 0 -0.1
v 0.2 0.1 -0.1
v -0.6 0 -7.45058e-009
v -0.5 0 -7.45058e-009
v -0.4 0 -7.45058e-009
v -0.2 0 -7.45058e-009
v -5.96046e-008 0 -7.45058e-009
v 0.1 0 -7.45058e-009
v 0.2 0 -7.45058e-009
v -0.6 0 -0.1
v -0.5 0 -0.1
v -0.4 0 -0.1
v -0.2 0 -0.1
v -5.96046e-008 0 -0.1
v 0.1 0 -0.1
v 0.2 0 -0.1
v -0.6 0.1 -7.45058e-009
v -0.5 0.1 -7.45058e-009
v -0.4 0.1 -7.45058e-009
v -0.2 0.1 -7.45058e-009
v -5.96046e-008 0.1 -7.45058e-009
v 0.1 0.1 -7.45058e-009
v 0.2 0.1 -7.45058e-009
v -0.6 0.1 -0.1
v -0.5 0.1 -0.1
v -0.4 0.1 -0.1
v -0.2 0.1 -0.1
v -5.96046e-008 0.1 -0.1
v 0.1 0.1 -0.1
v 0.2 0.1 -0.1

# faces
f 3/6/1 2/6/1 1/6/1
f 4/6/1 2/6/1 3/6/1
f 5/4/2 6/4/2 7/4/2
f 7/4/2 6/4/2 8/4/2
f 11/6/3 10/6/3 9/6/3
f 12/6/3 10/6/3 11/6/3
f 13/1/3 12/1/3 11/1/3
f 14/1/3 12/1/3 13/1/3
f 15/2/3 14/2/3 13/2/3
f 16/2/3 14/2/3 15/2/3
f 17/3/3 16/3/3 15/3/3
f 18/3/3 16/3/3 17/3/3
f 19/5/3 18/5/3 17/5/3
f 20/5/3 18/5/3 19/5/3
f 21/4/3 20/4/3 19/4/3
f 22/4/3 20/4/3 21/4/3
f 23/6/4 24/6/4 25/6/4
f 25/6/4 24/6/4 26/6/4
f 25/1/4 26/1/4 27/1/4
f 27/1/4 26/1/4 28/1/4
f 27/2/4 28/2/4 29/2/4
f 29/2/4 28/2/4 30/2/4
f 29/3/4 30/3/4 31/3/4
f 31/3/4 30/3/4 32/3/4
f 31/5/4 32/5/4 33/5/4
f 33/5/4 32/5/4 34/5/4
f 33/4/4 34/4/4 35/4/4
f 35/4/4 34/4/4 36/4/4
f 44/6/5 38/6/5 37/6/5
f 45/1/5 39/1/5 38/1/5
f 45/6/5 38/6/5 44/6/5
f 46/2/5 40/2/5 39/2/5
f 46/1/5 39/1/5 45/1/5
f 47/3/5 41/3/5 40/3/5
f 47/2/5 40/2/5 46/2/5
f 48/5/5 42/5/5 41/5/5
f 48/3/5 41/3/5 47/3/5
f 49/4/5 43/4/5 42/4/5
f 49/5/5 42/5/5 48/5/5
f 50/4/5 43/4/5 49/4/5
f 51/6/6 52/6/6 58/6/6
f 52/1/6 53/1/6 59/1/6
f 58/6/6 52/6/6 59/6/6
f 53/2/6 54/2/6 60/2/6
f 59/1/6 53/1/6 60/1/6
f 54/3/6 55/3/6 61/3/6
f 60/2/6 54/2/6 61/2/6
f 55/5/6 56/5/6 62/5/6
f 61/3/6 55/3/6 62/3/6
f 56/4/6 57/4/6 63/4/6
f 62/5/6 56/5/6 63/5/6
f 63/4/6 57/4/6 64/4/6
