# MagicaVoxel @ Ephtracy

# group
o 

# material
mtllib bar-10.mtl
usemtl palette

# normals
vn -1 0 0
vn 1 0 0
vn 0 0 1
vn 0 0 -1
vn 0 -1 0
vn 0 1 0

# texcoords
vt 0.908203 0.5
vt 0.912109 0.5
vt 0.939453 0.5
vt 0.943359 0.5
vt 0.970703 0.5

# verts
v -2.1 2.3 0
v -2.1 2.3 -0.1
v -2.1 3.2 0
v -2.1 3.2 -0.1
v -2 2.2 0
v -2 2.2 -0.1
v -2 2.3 0
v -2 2.3 -0.1
v -2 3.2 0
v -2 3.2 -0.1
v -2 3.3 0
v -2 3.3 -0.1
v 1.8 2.2 0
v 1.8 2.2 -0.1
v 1.8 2.3 0
v 1.8 2.3 -0.1
v 1.8 3.2 0
v 1.8 3.2 -0.1
v 1.8 3.3 0
v 1.8 3.3 -0.1
v 1.9 2.3 0
v 1.9 2.3 -0.1
v 1.9 3.2 0
v 1.9 3.2 -0.1
v -2.1 2.3 0
v -2.1 3.2 0
v -2 2.2 0
v -2 2.3 0
v -2 2.4 0
v -2 3.1 0
v -2 3.2 0
v -2 3.3 0
v -1.9 2.3 0
v -1.9 2.4 0
v -1.9 2.5 0
v -1.9 3 0
v -1.9 3.1 0
v -1.9 3.2 0
v -1.8 2.4 0
v -1.8 2.5 0
v -1.8 3 0
v -1.8 3.1 0
v -1.7 2.3 0
v -1.7 2.4 0
v -1.7 3.1 0
v -1.7 3.2 0
v 1.4 2.3 0
v 1.4 2.4 0
v 1.4 3.1 0
v 1.4 3.2 0
v 1.6 2.4 0
v 1.6 2.5 0
v 1.6 3 0
v 1.6 3.1 0
v 1.7 2.3 0
v 1.7 2.4 0
v 1.7 2.5 0
v 1.7 3 0
v 1.7 3.1 0
v 1.7 3.2 0
v 1.8 2.2 0
v 1.8 2.3 0
v 1.8 2.4 0
v 1.8 3.1 0
v 1.8 3.2 0
v 1.8 3.3 0
v 1.9 2.3 0
v 1.9 3.2 0
v -2.1 2.3 -0.1
v -2.1 3.2 -0.1
v -2 2.2 -0.1
v -2 2.3 -0.1
v -2 2.4 -0.1
v -2 3.1 -0.1
v -2 3.2 -0.1
v -2 3.3 -0.1
v -1.9 2.3 -0.1
v -1.9 2.4 -0.1
v -1.9 2.5 -0.1
v -1.9 3 -0.1
v -1.9 3.1 -0.1
v -1.9 3.2 -0.1
v -1.8 2.4 -0.1
v -1.8 2.5 -0.1
v -1.8 3 -0.1
v -1.8 3.1 -0.1
v -1.7 2.3 -0.1
v -1.7 2.4 -0.1
v -1.7 3.1 -0.1
v -1.7 3.2 -0.1
v 1.4 2.3 -0.1
v 1.4 2.4 -0.1
v 1.4 3.1 -0.1
v 1.4 3.2 -0.1
v 1.6 2.4 -0.1
v 1.6 2.5 -0.1
v 1.6 3 -0.1
v 1.6 3.1 -0.1
v 1.7 2.3 -0.1
v 1.7 2.4 -0.1
v 1.7 2.5 -0.1
v 1.7 3 -0.1
v 1.7 3.1 -0.1
v 1.7 3.2 -0.1
v 1.8 2.2 -0.1
v 1.8 2.3 -0.1
v 1.8 2.4 -0.1
v 1.8 3.1 -0.1
v 1.8 3.2 -0.1
v 1.8 3.3 -0.1
v 1.9 2.3 -0.1
v 1.9 3.2 -0.1
v -2 2.2 0
v 1.8 2.2 0
v -2 2.2 -0.1
v 1.8 2.2 -0.1
v -2.1 2.3 0
v -2 2.3 0
v 1.8 2.3 0
v 1.9 2.3 0
v -2.1 2.3 -0.1
v -2 2.3 -0.1
v 1.8 2.3 -0.1
v 1.9 2.3 -0.1
v -2.1 3.2 0
v -2 3.2 0
v 1.8 3.2 0
v 1.9 3.2 0
v -2.1 3.2 -0.1
v -2 3.2 -0.1
v 1.8 3.2 -0.1
v 1.9 3.2 -0.1
v -2 3.3 0
v 1.8 3.3 0
v -2 3.3 -0.1
v 1.8 3.3 -0.1

# faces
f 3/4/1 2/4/1 1/4/1
f 4/4/1 2/4/1 3/4/1
f 7/3/1 6/3/1 5/3/1
f 8/3/1 6/3/1 7/3/1
f 11/4/1 10/4/1 9/4/1
f 12/4/1 10/4/1 11/4/1
f 13/3/2 14/3/2 15/3/2
f 15/3/2 14/3/2 16/3/2
f 17/4/2 18/4/2 19/4/2
f 19/4/2 18/4/2 20/4/2
f 21/3/2 22/3/2 23/3/2
f 23/3/2 22/3/2 24/3/2
f 28/4/3 26/4/3 25/4/3
f 29/4/3 26/4/3 28/4/3
f 30/4/3 26/4/3 29/4/3
f 31/4/3 26/4/3 30/4/3
f 33/3/3 28/3/3 27/3/3
f 33/3/3 29/3/3 28/3/3
f 34/1/3 30/1/3 29/1/3
f 34/3/3 29/3/3 33/3/3
f 35/1/3 30/1/3 34/1/3
f 36/1/3 30/1/3 35/1/3
f 37/4/3 32/4/3 31/4/3
f 37/1/3 30/1/3 36/1/3
f 37/4/3 31/4/3 30/4/3
f 38/4/3 32/4/3 37/4/3
f 39/1/3 35/1/3 34/1/3
f 39/1/3 34/1/3 33/1/3
f 40/5/3 36/5/3 35/5/3
f 40/1/3 35/1/3 39/1/3
f 41/1/3 38/1/3 37/1/3
f 41/5/3 36/5/3 40/5/3
f 41/1/3 37/1/3 36/1/3
f 42/1/3 38/1/3 41/1/3
f 43/1/3 39/1/3 33/1/3
f 43/3/3 33/3/3 27/3/3
f 44/5/3 42/5/3 41/5/3
f 44/1/3 39/1/3 43/1/3
f 44/5/3 40/5/3 39/5/3
f 44/5/3 41/5/3 40/5/3
f 45/1/3 38/1/3 42/1/3
f 45/5/3 42/5/3 44/5/3
f 46/4/3 32/4/3 38/4/3
f 46/1/3 38/1/3 45/1/3
f 47/2/3 44/2/3 43/2/3
f 47/3/3 43/3/3 27/3/3
f 48/5/3 45/5/3 44/5/3
f 48/2/3 44/2/3 47/2/3
f 49/2/3 46/2/3 45/2/3
f 49/5/3 45/5/3 48/5/3
f 50/4/3 32/4/3 46/4/3
f 50/2/3 46/2/3 49/2/3
f 51/5/3 49/5/3 48/5/3
f 51/1/3 48/1/3 47/1/3
f 52/5/3 49/5/3 51/5/3
f 53/5/3 49/5/3 52/5/3
f 54/1/3 50/1/3 49/1/3
f 54/5/3 49/5/3 53/5/3
f 55/3/3 47/3/3 27/3/3
f 55/1/3 51/1/3 47/1/3
f 55/1/3 52/1/3 51/1/3
f 56/1/3 52/1/3 55/1/3
f 57/5/3 53/5/3 52/5/3
f 57/1/3 52/1/3 56/1/3
f 58/1/3 54/1/3 53/1/3
f 58/5/3 53/5/3 57/5/3
f 59/1/3 50/1/3 54/1/3
f 59/1/3 54/1/3 58/1/3
f 60/4/3 32/4/3 50/4/3
f 60/1/3 50/1/3 59/1/3
f 61/3/3 56/3/3 55/3/3
f 61/3/3 55/3/3 27/3/3
f 62/3/3 56/3/3 61/3/3
f 63/1/3 59/1/3 58/1/3
f 63/3/3 56/3/3 62/3/3
f 63/1/3 58/1/3 57/1/3
f 63/1/3 57/1/3 56/1/3
f 64/4/3 60/4/3 59/4/3
f 64/1/3 59/1/3 63/1/3
f 65/4/3 32/4/3 60/4/3
f 65/4/3 60/4/3 64/4/3
f 66/4/3 32/4/3 65/4/3
f 67/3/3 64/3/3 63/3/3
f 67/3/3 65/3/3 64/3/3
f 67/3/3 63/3/3 62/3/3
f 68/3/3 65/3/3 67/3/3
f 69/4/4 70/4/4 72/4/4
f 72/4/4 70/4/4 73/4/4
f 73/4/4 70/4/4 74/4/4
f 74/4/4 70/4/4 75/4/4
f 71/3/4 72/3/4 77/3/4
f 72/3/4 73/3/4 77/3/4
f 73/1/4 74/1/4 78/1/4
f 77/3/4 73/3/4 78/3/4
f 78/1/4 74/1/4 79/1/4
f 79/1/4 74/1/4 80/1/4
f 75/4/4 76/4/4 81/4/4
f 80/1/4 74/1/4 81/1/4
f 74/4/4 75/4/4 81/4/4
f 81/4/4 76/4/4 82/4/4
f 78/1/4 79/1/4 83/1/4
f 77/1/4 78/1/4 83/1/4
f 79/5/4 80/5/4 84/5/4
f 83/1/4 79/1/4 84/1/4
f 81/1/4 82/1/4 85/1/4
f 84/5/4 80/5/4 85/5/4
f 80/1/4 81/1/4 85/1/4
f 85/1/4 82/1/4 86/1/4
f 77/1/4 83/1/4 87/1/4
f 71/3/4 77/3/4 87/3/4
f 85/5/4 86/5/4 88/5/4
f 87/1/4 83/1/4 88/1/4
f 83/5/4 84/5/4 88/5/4
f 84/5/4 85/5/4 88/5/4
f 86/1/4 82/1/4 89/1/4
f 88/5/4 86/5/4 89/5/4
f 82/4/4 76/4/4 90/4/4
f 89/1/4 82/1/4 90/1/4
f 87/2/4 88/2/4 91/2/4
f 71/3/4 87/3/4 91/3/4
f 88/5/4 89/5/4 92/5/4
f 91/2/4 88/2/4 92/2/4
f 89/2/4 90/2/4 93/2/4
f 92/5/4 89/5/4 93/5/4
f 90/4/4 76/4/4 94/4/4
f 93/2/4 90/2/4 94/2/4
f 92/5/4 93/5/4 95/5/4
f 91/1/4 92/1/4 95/1/4
f 95/5/4 93/5/4 96/5/4
f 96/5/4 93/5/4 97/5/4
f 93/1/4 94/1/4 98/1/4
f 97/5/4 93/5/4 98/5/4
f 71/3/4 91/3/4 99/3/4
f 91/1/4 95/1/4 99/1/4
f 95/1/4 96/1/4 99/1/4
f 99/1/4 96/1/4 100/1/4
f 96/5/4 97/5/4 101/5/4
f 100/1/4 96/1/4 101/1/4
f 97/1/4 98/1/4 102/1/4
f 101/5/4 97/5/4 102/5/4
f 98/1/4 94/1/4 103/1/4
f 102/1/4 98/1/4 103/1/4
f 94/4/4 76/4/4 104/4/4
f 103/1/4 94/1/4 104/1/4
f 99/3/4 100/3/4 105/3/4
f 71/3/4 99/3/4 105/3/4
f 105/3/4 100/3/4 106/3/4
f 102/1/4 103/1/4 107/1/4
f 106/3/4 100/3/4 107/3/4
f 101/1/4 102/1/4 107/1/4
f 100/1/4 101/1/4 107/1/4
f 103/4/4 104/4/4 108/4/4
f 107/1/4 103/1/4 108/1/4
f 104/4/4 76/4/4 109/4/4
f 108/4/4 104/4/4 109/4/4
f 109/4/4 76/4/4 110/4/4
f 107/3/4 108/3/4 111/3/4
f 108/3/4 109/3/4 111/3/4
f 106/3/4 107/3/4 111/3/4
f 111/3/4 109/3/4 112/3/4
f 115/3/5 114/3/5 113/3/5
f 116/3/5 114/3/5 115/3/5
f 121/4/5 118/4/5 117/4/5
f 122/4/5 118/4/5 121/4/5
f 123/3/5 120/3/5 119/3/5
f 124/3/5 120/3/5 123/3/5
f 125/4/6 126/4/6 129/4/6
f 129/4/6 126/4/6 130/4/6
f 127/3/6 128/3/6 131/3/6
f 131/3/6 128/3/6 132/3/6
f 133/4/6 134/4/6 135/4/6
f 135/4/6 134/4/6 136/4/6
