# MagicaVoxel @ Ephtracy

# group
o 

# material
mtllib bar-2.mtl
usemtl palette

# normals
vn -1 0 0
vn 1 0 0
vn 0 0 1
vn 0 0 -1
vn 0 -1 0
vn 0 1 0

# texcoords
vt 0.0996094 0.5
vt 0.103516 0.5
vt 0.751953 0.5

# verts
v -0.4 2.7 0
v -0.4 2.7 -0.1
v -0.4 2.8 0
v -0.4 2.8 -0.1
v -0.3 2.6 0
v -0.3 2.6 -0.1
v -0.3 2.7 0
v -0.3 2.7 -0.1
v -0.3 2.8 0
v -0.3 2.8 -0.1
v -0.3 2.9 0
v -0.3 2.9 -0.1
v -0.2 2.5 0
v -0.2 2.5 -0.1
v -0.2 2.6 0
v -0.2 2.6 -0.1
v -0.2 2.9 0
v -0.2 2.9 -0.1
v -0.2 3 0
v -0.2 3 -0.1
v -0.1 2.4 0
v -0.1 2.4 -0.1
v -0.1 2.5 0
v -0.1 2.5 -0.1
v -0.1 3 0
v -0.1 3 -0.1
v -0.1 3.1 0
v -0.1 3.1 -0.1
v 0 2.3 0
v 0 2.3 -0.1
v 0 2.4 0
v 0 2.4 -0.1
v 0 3.1 0
v 0 3.1 -0.1
v 0 3.2 0
v 0 3.2 -0.1
v -0.1 2.7 0
v -0.1 2.7 -0.1
v -0.1 2.8 0
v -0.1 2.8 -0.1
v 0 2.6 0
v 0 2.6 -0.1
v 0 2.7 0
v 0 2.7 -0.1
v 0 2.8 0
v 0 2.8 -0.1
v 0 2.9 0
v 0 2.9 -0.1
v 0.1 2.3 0
v 0.1 2.3 -0.1
v 0.1 2.4 0
v 0.1 2.4 -0.1
v 0.1 2.5 0
v 0.1 2.5 -0.1
v 0.1 2.6 0
v 0.1 2.6 -0.1
v 0.1 2.9 0
v 0.1 2.9 -0.1
v 0.1 3 0
v 0.1 3 -0.1
v 0.1 3.1 0
v 0.1 3.1 -0.1
v 0.1 3.2 0
v 0.1 3.2 -0.1
v 0.2 2.4 0
v 0.2 2.4 -0.1
v 0.2 2.5 0
v 0.2 2.5 -0.1
v 0.2 3 0
v 0.2 3 -0.1
v 0.2 3.1 0
v 0.2 3.1 -0.1
v -0.4 2.7 0
v -0.4 2.8 0
v -0.3 2.6 0
v -0.3 2.7 0
v -0.3 2.8 0
v -0.3 2.9 0
v -0.2 2.5 0
v -0.2 2.6 0
v -0.2 2.7 0
v -0.2 2.8 0
v -0.2 2.9 0
v -0.2 3 0
v -0.1 2.4 0
v -0.1 2.5 0
v -0.1 2.6 0
v -0.1 2.7 0
v -0.1 2.8 0
v -0.1 2.9 0
v -0.1 3 0
v -0.1 3.1 0
v 0 2.3 0
v 0 2.4 0
v 0 2.5 0
v 0 2.6 0
v 0 2.7 0
v 0 2.8 0
v 0 2.9 0
v 0 3 0
v 0 3.1 0
v 0 3.2 0
v 0.1 2.3 0
v 0.1 2.4 0
v 0.1 2.5 0
v 0.1 2.6 0
v 0.1 2.9 0
v 0.1 3 0
v 0.1 3.1 0
v 0.1 3.2 0
v 0.2 2.4 0
v 0.2 2.5 0
v 0.2 3 0
v 0.2 3.1 0
v -0.4 2.7 -0.1
v -0.4 2.8 -0.1
v -0.3 2.6 -0.1
v -0.3 2.7 -0.1
v -0.3 2.8 -0.1
v -0.3 2.9 -0.1
v -0.2 2.5 -0.1
v -0.2 2.6 -0.1
v -0.2 2.7 -0.1
v -0.2 2.8 -0.1
v -0.2 2.9 -0.1
v -0.2 3 -0.1
v -0.1 2.4 -0.1
v -0.1 2.5 -0.1
v -0.1 2.6 -0.1
v -0.1 2.7 -0.1
v -0.1 2.8 -0.1
v -0.1 2.9 -0.1
v -0.1 3 -0.1
v -0.1 3.1 -0.1
v 0 2.3 -0.1
v 0 2.4 -0.1
v 0 2.5 -0.1
v 0 2.6 -0.1
v 0 2.7 -0.1
v 0 2.8 -0.1
v 0 2.9 -0.1
v 0 3 -0.1
v 0 3.1 -0.1
v 0 3.2 -0.1
v 0.1 2.3 -0.1
v 0.1 2.4 -0.1
v 0.1 2.5 -0.1
v 0.1 2.6 -0.1
v 0.1 2.9 -0.1
v 0.1 3 -0.1
v 0.1 3.1 -0.1
v 0.1 3.2 -0.1
v 0.2 2.4 -0.1
v 0.2 2.5 -0.1
v 0.2 3 -0.1
v 0.2 3.1 -0.1
v 0 2.3 0
v 0.1 2.3 0
v 0 2.3 -0.1
v 0.1 2.3 -0.1
v -0.1 2.4 0
v 0 2.4 0
v 0.1 2.4 0
v 0.2 2.4 0
v -0.1 2.4 -0.1
v 0 2.4 -0.1
v 0.1 2.4 -0.1
v 0.2 2.4 -0.1
v -0.2 2.5 0
v -0.1 2.5 0
v -0.2 2.5 -0.1
v -0.1 2.5 -0.1
v -0.3 2.6 0
v -0.2 2.6 0
v -0.3 2.6 -0.1
v -0.2 2.6 -0.1
v -0.4 2.7 0
v -0.3 2.7 0
v -0.4 2.7 -0.1
v -0.3 2.7 -0.1
v -0.1 2.8 0
v 0 2.8 0
v -0.1 2.8 -0.1
v 0 2.8 -0.1
v 0 2.9 0
v 0.1 2.9 0
v 0 2.9 -0.1
v 0.1 2.9 -0.1
v 0.1 3 0
v 0.2 3 0
v 0.1 3 -0.1
v 0.2 3 -0.1
v 0.1 2.5 0
v 0.2 2.5 0
v 0.1 2.5 -0.1
v 0.2 2.5 -0.1
v 0 2.6 0
v 0.1 2.6 0
v 0 2.6 -0.1
v 0.1 2.6 -0.1
v -0.1 2.7 0
v 0 2.7 0
v -0.1 2.7 -0.1
v 0 2.7 -0.1
v -0.4 2.8 0
v -0.3 2.8 0
v -0.4 2.8 -0.1
v -0.3 2.8 -0.1
v -0.3 2.9 0
v -0.2 2.9 0
v -0.3 2.9 -0.1
v -0.2 2.9 -0.1
v -0.2 3 0
v -0.1 3 0
v -0.2 3 -0.1
v -0.1 3 -0.1
v -0.1 3.1 0
v 0 3.1 0
v 0.1 3.1 0
v 0.2 3.1 0
v -0.1 3.1 -0.1
v 0 3.1 -0.1
v 0.1 3.1 -0.1
v 0.2 3.1 -0.1
v 0 3.2 0
v 0.1 3.2 0
v 0 3.2 -0.1
v 0.1 3.2 -0.1

# faces
f 3/1/1 2/1/1 1/1/1
f 4/1/1 2/1/1 3/1/1
f 7/1/1 6/1/1 5/1/1
f 8/1/1 6/1/1 7/1/1
f 11/1/1 10/1/1 9/1/1
f 12/1/1 10/1/1 11/1/1
f 15/1/1 14/1/1 13/1/1
f 16/1/1 14/1/1 15/1/1
f 19/1/1 18/1/1 17/1/1
f 20/1/1 18/1/1 19/1/1
f 23/1/1 22/1/1 21/1/1
f 24/1/1 22/1/1 23/1/1
f 27/1/1 26/1/1 25/1/1
f 28/1/1 26/1/1 27/1/1
f 31/1/1 30/1/1 29/1/1
f 32/1/1 30/1/1 31/1/1
f 35/1/1 34/1/1 33/1/1
f 36/1/1 34/1/1 35/1/1
f 37/3/2 38/3/2 39/3/2
f 39/3/2 38/3/2 40/3/2
f 41/3/2 42/3/2 43/3/2
f 43/3/2 42/3/2 44/3/2
f 45/3/2 46/3/2 47/3/2
f 47/3/2 46/3/2 48/3/2
f 49/1/2 50/1/2 51/1/2
f 51/1/2 50/1/2 52/1/2
f 53/3/2 54/3/2 55/3/2
f 55/3/2 54/3/2 56/3/2
f 57/3/2 58/3/2 59/3/2
f 59/3/2 58/3/2 60/3/2
f 61/1/2 62/1/2 63/1/2
f 63/1/2 62/1/2 64/1/2
f 65/3/2 66/3/2 67/3/2
f 67/3/2 66/3/2 68/3/2
f 69/3/2 70/3/2 71/3/2
f 71/3/2 70/3/2 72/3/2
f 76/1/3 74/1/3 73/1/3
f 77/1/3 74/1/3 76/1/3
f 80/1/3 76/1/3 75/1/3
f 81/2/3 77/2/3 76/2/3
f 81/1/3 76/1/3 80/1/3
f 82/1/3 78/1/3 77/1/3
f 82/2/3 77/2/3 81/2/3
f 83/1/3 78/1/3 82/1/3
f 86/1/3 80/1/3 79/1/3
f 87/2/3 81/2/3 80/2/3
f 87/1/3 80/1/3 86/1/3
f 88/3/3 82/3/3 81/3/3
f 88/2/3 81/2/3 87/2/3
f 89/2/3 83/2/3 82/2/3
f 89/3/3 82/3/3 88/3/3
f 90/1/3 84/1/3 83/1/3
f 90/2/3 83/2/3 89/2/3
f 91/1/3 84/1/3 90/1/3
f 94/1/3 86/1/3 85/1/3
f 95/2/3 87/2/3 86/2/3
f 95/1/3 86/1/3 94/1/3
f 96/3/3 88/3/3 87/3/3
f 96/2/3 87/2/3 95/2/3
f 97/3/3 88/3/3 96/3/3
f 98/3/3 90/3/3 89/3/3
f 99/2/3 91/2/3 90/2/3
f 99/3/3 90/3/3 98/3/3
f 100/1/3 92/1/3 91/1/3
f 100/2/3 91/2/3 99/2/3
f 101/1/3 92/1/3 100/1/3
f 103/1/3 94/1/3 93/1/3
f 104/2/3 95/2/3 94/2/3
f 104/1/3 94/1/3 103/1/3
f 105/3/3 96/3/3 95/3/3
f 105/2/3 95/2/3 104/2/3
f 106/3/3 96/3/3 105/3/3
f 107/3/3 100/3/3 99/3/3
f 108/2/3 101/2/3 100/2/3
f 108/3/3 100/3/3 107/3/3
f 109/1/3 102/1/3 101/1/3
f 109/2/3 101/2/3 108/2/3
f 110/1/3 102/1/3 109/1/3
f 111/3/3 105/3/3 104/3/3
f 112/3/3 105/3/3 111/3/3
f 113/3/3 109/3/3 108/3/3
f 114/3/3 109/3/3 113/3/3
f 115/1/4 116/1/4 118/1/4
f 118/1/4 116/1/4 119/1/4
f 117/1/4 118/1/4 122/1/4
f 118/2/4 119/2/4 123/2/4
f 122/1/4 118/1/4 123/1/4
f 119/1/4 120/1/4 124/1/4
f 123/2/4 119/2/4 124/2/4
f 124/1/4 120/1/4 125/1/4
f 121/1/4 122/1/4 128/1/4
f 122/2/4 123/2/4 129/2/4
f 128/1/4 122/1/4 129/1/4
f 123/3/4 124/3/4 130/3/4
f 129/2/4 123/2/4 130/2/4
f 124/2/4 125/2/4 131/2/4
f 130/3/4 124/3/4 131/3/4
f 125/1/4 126/1/4 132/1/4
f 131/2/4 125/2/4 132/2/4
f 132/1/4 126/1/4 133/1/4
f 127/1/4 128/1/4 136/1/4
f 128/2/4 129/2/4 137/2/4
f 136/1/4 128/1/4 137/1/4
f 129/3/4 130/3/4 138/3/4
f 137/2/4 129/2/4 138/2/4
f 138/3/4 130/3/4 139/3/4
f 131/3/4 132/3/4 140/3/4
f 132/2/4 133/2/4 141/2/4
f 140/3/4 132/3/4 141/3/4
f 133/1/4 134/1/4 142/1/4
f 141/2/4 133/2/4 142/2/4
f 142/1/4 134/1/4 143/1/4
f 135/1/4 136/1/4 145/1/4
f 136/2/4 137/2/4 146/2/4
f 145/1/4 136/1/4 146/1/4
f 137/3/4 138/3/4 147/3/4
f 146/2/4 137/2/4 147/2/4
f 147/3/4 138/3/4 148/3/4
f 141/3/4 142/3/4 149/3/4
f 142/2/4 143/2/4 150/2/4
f 149/3/4 142/3/4 150/3/4
f 143/1/4 144/1/4 151/1/4
f 150/2/4 143/2/4 151/2/4
f 151/1/4 144/1/4 152/1/4
f 146/3/4 147/3/4 153/3/4
f 153/3/4 147/3/4 154/3/4
f 150/3/4 151/3/4 155/3/4
f 155/3/4 151/3/4 156/3/4
f 159/1/5 158/1/5 157/1/5
f 160/1/5 158/1/5 159/1/5
f 165/1/5 162/1/5 161/1/5
f 166/1/5 162/1/5 165/1/5
f 167/3/5 164/3/5 163/3/5
f 168/3/5 164/3/5 167/3/5
f 171/1/5 170/1/5 169/1/5
f 172/1/5 170/1/5 171/1/5
f 175/1/5 174/1/5 173/1/5
f 176/1/5 174/1/5 175/1/5
f 179/1/5 178/1/5 177/1/5
f 180/1/5 178/1/5 179/1/5
f 183/3/5 182/3/5 181/3/5
f 184/3/5 182/3/5 183/3/5
f 187/3/5 186/3/5 185/3/5
f 188/3/5 186/3/5 187/3/5
f 191/3/5 190/3/5 189/3/5
f 192/3/5 190/3/5 191/3/5
f 193/3/6 194/3/6 195/3/6
f 195/3/6 194/3/6 196/3/6
f 197/3/6 198/3/6 199/3/6
f 199/3/6 198/3/6 200/3/6
f 201/3/6 202/3/6 203/3/6
f 203/3/6 202/3/6 204/3/6
f 205/1/6 206/1/6 207/1/6
f 207/1/6 206/1/6 208/1/6
f 209/1/6 210/1/6 211/1/6
f 211/1/6 210/1/6 212/1/6
f 213/1/6 214/1/6 215/1/6
f 215/1/6 214/1/6 216/1/6
f 217/1/6 218/1/6 221/1/6
f 221/1/6 218/1/6 222/1/6
f 219/3/6 220/3/6 223/3/6
f 223/3/6 220/3/6 224/3/6
f 225/1/6 226/1/6 227/1/6
f 227/1/6 226/1/6 228/1/6
