# MagicaVoxel @ Ephtracy

# group
o 

# material
mtllib bar-9.mtl
usemtl palette

# normals
vn -1 0 0
vn 1 0 0
vn 0 0 1
vn 0 0 -1
vn 0 -1 0
vn 0 1 0

# texcoords
vt 0.845703 0.5
vt 0.849609 0.5
vt 0.974609 0.5

# verts
v -0.4 2.7 0.1
v -0.4 2.7 0
v -0.4 2.8 0.1
v -0.4 2.8 0
v -0.3 2.6 0.1
v -0.3 2.6 0
v -0.3 2.7 0.1
v -0.3 2.7 0
v -0.3 2.8 0.1
v -0.3 2.8 0
v -0.3 2.9 0.1
v -0.3 2.9 0
v -0.2 2.5 0.1
v -0.2 2.5 0
v -0.2 2.6 0.1
v -0.2 2.6 0
v -0.2 2.9 0.1
v -0.2 2.9 0
v -0.2 3 0.1
v -0.2 3 0
v -0.1 2.4 0.1
v -0.1 2.4 0
v -0.1 2.5 0.1
v -0.1 2.5 0
v -0.1 3 0.1
v -0.1 3 0
v -0.1 3.1 0.1
v -0.1 3.1 0
v 0 2.3 0.1
v 0 2.3 0
v 0 2.4 0.1
v 0 2.4 0
v 0 3.1 0.1
v 0 3.1 0
v 0 3.2 0.1
v 0 3.2 0
v -0.1 2.7 0.1
v -0.1 2.7 0
v -0.1 2.8 0.1
v -0.1 2.8 0
v 0 2.6 0.1
v 0 2.6 0
v 0 2.7 0.1
v 0 2.7 0
v 0 2.8 0.1
v 0 2.8 0
v 0 2.9 0.1
v 0 2.9 0
v 0.1 2.3 0.1
v 0.1 2.3 0
v 0.1 2.4 0.1
v 0.1 2.4 0
v 0.1 2.5 0.1
v 0.1 2.5 0
v 0.1 2.6 0.1
v 0.1 2.6 0
v 0.1 2.9 0.1
v 0.1 2.9 0
v 0.1 3 0.1
v 0.1 3 0
v 0.1 3.1 0.1
v 0.1 3.1 0
v 0.1 3.2 0.1
v 0.1 3.2 0
v 0.2 2.4 0.1
v 0.2 2.4 0
v 0.2 2.5 0.1
v 0.2 2.5 0
v 0.2 3 0.1
v 0.2 3 0
v 0.2 3.1 0.1
v 0.2 3.1 0
v -0.4 2.7 0.1
v -0.4 2.8 0.1
v -0.3 2.6 0.1
v -0.3 2.7 0.1
v -0.3 2.8 0.1
v -0.3 2.9 0.1
v -0.2 2.5 0.1
v -0.2 2.6 0.1
v -0.2 2.7 0.1
v -0.2 2.8 0.1
v -0.2 2.9 0.1
v -0.2 3 0.1
v -0.1 2.4 0.1
v -0.1 2.5 0.1
v -0.1 2.6 0.1
v -0.1 2.7 0.1
v -0.1 2.8 0.1
v -0.1 2.9 0.1
v -0.1 3 0.1
v -0.1 3.1 0.1
v 0 2.3 0.1
v 0 2.4 0.1
v 0 2.5 0.1
v 0 2.6 0.1
v 0 2.7 0.1
v 0 2.8 0.1
v 0 2.9 0.1
v 0 3 0.1
v 0 3.1 0.1
v 0 3.2 0.1
v 0.1 2.3 0.1
v 0.1 2.4 0.1
v 0.1 2.5 0.1
v 0.1 2.6 0.1
v 0.1 2.9 0.1
v 0.1 3 0.1
v 0.1 3.1 0.1
v 0.1 3.2 0.1
v 0.2 2.4 0.1
v 0.2 2.5 0.1
v 0.2 3 0.1
v 0.2 3.1 0.1
v -0.4 2.7 0
v -0.4 2.8 0
v -0.3 2.6 0
v -0.3 2.7 0
v -0.3 2.8 0
v -0.3 2.9 0
v -0.2 2.5 0
v -0.2 2.6 0
v -0.2 2.7 0
v -0.2 2.8 0
v -0.2 2.9 0
v -0.2 3 0
v -0.1 2.4 0
v -0.1 2.5 0
v -0.1 2.6 0
v -0.1 2.7 0
v -0.1 2.8 0
v -0.1 2.9 0
v -0.1 3 0
v -0.1 3.1 0
v 0 2.3 0
v 0 2.4 0
v 0 2.5 0
v 0 2.6 0
v 0 2.7 0
v 0 2.8 0
v 0 2.9 0
v 0 3 0
v 0 3.1 0
v 0 3.2 0
v 0.1 2.3 0
v 0.1 2.4 0
v 0.1 2.5 0
v 0.1 2.6 0
v 0.1 2.9 0
v 0.1 3 0
v 0.1 3.1 0
v 0.1 3.2 0
v 0.2 2.4 0
v 0.2 2.5 0
v 0.2 3 0
v 0.2 3.1 0
v 0 2.3 0.1
v 0.1 2.3 0.1
v 0 2.3 0
v 0.1 2.3 0
v -0.1 2.4 0.1
v 0 2.4 0.1
v 0.1 2.4 0.1
v 0.2 2.4 0.1
v -0.1 2.4 0
v 0 2.4 0
v 0.1 2.4 0
v 0.2 2.4 0
v -0.2 2.5 0.1
v -0.1 2.5 0.1
v -0.2 2.5 0
v -0.1 2.5 0
v -0.3 2.6 0.1
v -0.2 2.6 0.1
v -0.3 2.6 0
v -0.2 2.6 0
v -0.4 2.7 0.1
v -0.3 2.7 0.1
v -0.4 2.7 0
v -0.3 2.7 0
v -0.1 2.8 0.1
v 0 2.8 0.1
v -0.1 2.8 0
v 0 2.8 0
v 0 2.9 0.1
v 0.1 2.9 0.1
v 0 2.9 0
v 0.1 2.9 0
v 0.1 3 0.1
v 0.2 3 0.1
v 0.1 3 0
v 0.2 3 0
v 0.1 2.5 0.1
v 0.2 2.5 0.1
v 0.1 2.5 0
v 0.2 2.5 0
v 0 2.6 0.1
v 0.1 2.6 0.1
v 0 2.6 0
v 0.1 2.6 0
v -0.1 2.7 0.1
v 0 2.7 0.1
v -0.1 2.7 0
v 0 2.7 0
v -0.4 2.8 0.1
v -0.3 2.8 0.1
v -0.4 2.8 0
v -0.3 2.8 0
v -0.3 2.9 0.1
v -0.2 2.9 0.1
v -0.3 2.9 0
v -0.2 2.9 0
v -0.2 3 0.1
v -0.1 3 0.1
v -0.2 3 0
v -0.1 3 0
v -0.1 3.1 0.1
v 0 3.1 0.1
v 0.1 3.1 0.1
v 0.2 3.1 0.1
v -0.1 3.1 0
v 0 3.1 0
v 0.1 3.1 0
v 0.2 3.1 0
v 0 3.2 0.1
v 0.1 3.2 0.1
v 0 3.2 0
v 0.1 3.2 0

# faces
f 3/2/1 2/2/1 1/2/1
f 4/2/1 2/2/1 3/2/1
f 7/2/1 6/2/1 5/2/1
f 8/2/1 6/2/1 7/2/1
f 11/2/1 10/2/1 9/2/1
f 12/2/1 10/2/1 11/2/1
f 15/2/1 14/2/1 13/2/1
f 16/2/1 14/2/1 15/2/1
f 19/2/1 18/2/1 17/2/1
f 20/2/1 18/2/1 19/2/1
f 23/2/1 22/2/1 21/2/1
f 24/2/1 22/2/1 23/2/1
f 27/2/1 26/2/1 25/2/1
f 28/2/1 26/2/1 27/2/1
f 31/2/1 30/2/1 29/2/1
f 32/2/1 30/2/1 31/2/1
f 35/2/1 34/2/1 33/2/1
f 36/2/1 34/2/1 35/2/1
f 37/3/2 38/3/2 39/3/2
f 39/3/2 38/3/2 40/3/2
f 41/3/2 42/3/2 43/3/2
f 43/3/2 42/3/2 44/3/2
f 45/3/2 46/3/2 47/3/2
f 47/3/2 46/3/2 48/3/2
f 49/2/2 50/2/2 51/2/2
f 51/2/2 50/2/2 52/2/2
f 53/3/2 54/3/2 55/3/2
f 55/3/2 54/3/2 56/3/2
f 57/3/2 58/3/2 59/3/2
f 59/3/2 58/3/2 60/3/2
f 61/2/2 62/2/2 63/2/2
f 63/2/2 62/2/2 64/2/2
f 65/3/2 66/3/2 67/3/2
f 67/3/2 66/3/2 68/3/2
f 69/3/2 70/3/2 71/3/2
f 71/3/2 70/3/2 72/3/2
f 76/2/3 74/2/3 73/2/3
f 77/2/3 74/2/3 76/2/3
f 80/2/3 76/2/3 75/2/3
f 81/1/3 77/1/3 76/1/3
f 81/2/3 76/2/3 80/2/3
f 82/2/3 78/2/3 77/2/3
f 82/1/3 77/1/3 81/1/3
f 83/2/3 78/2/3 82/2/3
f 86/2/3 80/2/3 79/2/3
f 87/1/3 81/1/3 80/1/3
f 87/2/3 80/2/3 86/2/3
f 88/3/3 82/3/3 81/3/3
f 88/1/3 81/1/3 87/1/3
f 89/1/3 83/1/3 82/1/3
f 89/3/3 82/3/3 88/3/3
f 90/2/3 84/2/3 83/2/3
f 90/1/3 83/1/3 89/1/3
f 91/2/3 84/2/3 90/2/3
f 94/2/3 86/2/3 85/2/3
f 95/1/3 87/1/3 86/1/3
f 95/2/3 86/2/3 94/2/3
f 96/3/3 88/3/3 87/3/3
f 96/1/3 87/1/3 95/1/3
f 97/3/3 88/3/3 96/3/3
f 98/3/3 90/3/3 89/3/3
f 99/1/3 91/1/3 90/1/3
f 99/3/3 90/3/3 98/3/3
f 100/2/3 92/2/3 91/2/3
f 100/1/3 91/1/3 99/1/3
f 101/2/3 92/2/3 100/2/3
f 103/2/3 94/2/3 93/2/3
f 104/1/3 95/1/3 94/1/3
f 104/2/3 94/2/3 103/2/3
f 105/3/3 96/3/3 95/3/3
f 105/1/3 95/1/3 104/1/3
f 106/3/3 96/3/3 105/3/3
f 107/3/3 100/3/3 99/3/3
f 108/1/3 101/1/3 100/1/3
f 108/3/3 100/3/3 107/3/3
f 109/2/3 102/2/3 101/2/3
f 109/1/3 101/1/3 108/1/3
f 110/2/3 102/2/3 109/2/3
f 111/3/3 105/3/3 104/3/3
f 112/3/3 105/3/3 111/3/3
f 113/3/3 109/3/3 108/3/3
f 114/3/3 109/3/3 113/3/3
f 115/2/4 116/2/4 118/2/4
f 118/2/4 116/2/4 119/2/4
f 117/2/4 118/2/4 122/2/4
f 118/1/4 119/1/4 123/1/4
f 122/2/4 118/2/4 123/2/4
f 119/2/4 120/2/4 124/2/4
f 123/1/4 119/1/4 124/1/4
f 124/2/4 120/2/4 125/2/4
f 121/2/4 122/2/4 128/2/4
f 122/1/4 123/1/4 129/1/4
f 128/2/4 122/2/4 129/2/4
f 123/3/4 124/3/4 130/3/4
f 129/1/4 123/1/4 130/1/4
f 124/1/4 125/1/4 131/1/4
f 130/3/4 124/3/4 131/3/4
f 125/2/4 126/2/4 132/2/4
f 131/1/4 125/1/4 132/1/4
f 132/2/4 126/2/4 133/2/4
f 127/2/4 128/2/4 136/2/4
f 128/1/4 129/1/4 137/1/4
f 136/2/4 128/2/4 137/2/4
f 129/3/4 130/3/4 138/3/4
f 137/1/4 129/1/4 138/1/4
f 138/3/4 130/3/4 139/3/4
f 131/3/4 132/3/4 140/3/4
f 132/1/4 133/1/4 141/1/4
f 140/3/4 132/3/4 141/3/4
f 133/2/4 134/2/4 142/2/4
f 141/1/4 133/1/4 142/1/4
f 142/2/4 134/2/4 143/2/4
f 135/2/4 136/2/4 145/2/4
f 136/1/4 137/1/4 146/1/4
f 145/2/4 136/2/4 146/2/4
f 137/3/4 138/3/4 147/3/4
f 146/1/4 137/1/4 147/1/4
f 147/3/4 138/3/4 148/3/4
f 141/3/4 142/3/4 149/3/4
f 142/1/4 143/1/4 150/1/4
f 149/3/4 142/3/4 150/3/4
f 143/2/4 144/2/4 151/2/4
f 150/1/4 143/1/4 151/1/4
f 151/2/4 144/2/4 152/2/4
f 146/3/4 147/3/4 153/3/4
f 153/3/4 147/3/4 154/3/4
f 150/3/4 151/3/4 155/3/4
f 155/3/4 151/3/4 156/3/4
f 159/2/5 158/2/5 157/2/5
f 160/2/5 158/2/5 159/2/5
f 165/2/5 162/2/5 161/2/5
f 166/2/5 162/2/5 165/2/5
f 167/3/5 164/3/5 163/3/5
f 168/3/5 164/3/5 167/3/5
f 171/2/5 170/2/5 169/2/5
f 172/2/5 170/2/5 171/2/5
f 175/2/5 174/2/5 173/2/5
f 176/2/5 174/2/5 175/2/5
f 179/2/5 178/2/5 177/2/5
f 180/2/5 178/2/5 179/2/5
f 183/3/5 182/3/5 181/3/5
f 184/3/5 182/3/5 183/3/5
f 187/3/5 186/3/5 185/3/5
f 188/3/5 186/3/5 187/3/5
f 191/3/5 190/3/5 189/3/5
f 192/3/5 190/3/5 191/3/5
f 193/3/6 194/3/6 195/3/6
f 195/3/6 194/3/6 196/3/6
f 197/3/6 198/3/6 199/3/6
f 199/3/6 198/3/6 200/3/6
f 201/3/6 202/3/6 203/3/6
f 203/3/6 202/3/6 204/3/6
f 205/2/6 206/2/6 207/2/6
f 207/2/6 206/2/6 208/2/6
f 209/2/6 210/2/6 211/2/6
f 211/2/6 210/2/6 212/2/6
f 213/2/6 214/2/6 215/2/6
f 215/2/6 214/2/6 216/2/6
f 217/2/6 218/2/6 221/2/6
f 221/2/6 218/2/6 222/2/6
f 219/3/6 220/3/6 223/3/6
f 223/3/6 220/3/6 224/3/6
f 225/2/6 226/2/6 227/2/6
f 227/2/6 226/2/6 228/2/6
