# MagicaVoxel @ Ephtracy

# group
o 

# material
mtllib chisla chas-0.mtl
usemtl palette

# normals
vn -1 0 0
vn 1 0 0
vn 0 0 1
vn 0 0 -1
vn 0 -1 0
vn 0 1 0

# texcoords
vt 0.939453 0.5
vt 0.943359 0.5
vt 0.947266 0.5

# verts
v 9.1 3.1 -1.8
v 9.1 3.1 -1.9
v 9.1 3.4 -1.8
v 9.1 3.4 -1.9
v 9.2 3 -1.8
v 9.2 3 -1.9
v 9.2 3.1 -1.8
v 9.2 3.1 -1.9
v 9.2 3.2 -1.7
v 9.2 3.2 -1.8
v 9.2 3.3 -1.7
v 9.2 3.3 -1.8
v 9.2 3.5 -1.8
v 9.2 3.5 -1.9
v 9.2 3.8 -1.8
v 9.2 3.8 -1.9
v 9.3 3.4 -1.8
v 9.3 3.4 -1.9
v 9.3 3.5 -1.8
v 9.3 3.5 -1.9
v 9.3 3.6 -1.7
v 9.3 3.6 -1.8
v 9.3 3.7 -1.7
v 9.3 3.7 -1.8
v 9.3 3.8 -1.8
v 9.3 3.8 -1.9
v 9.3 3.9 -1.8
v 9.3 3.9 -1.9
v 9.4 3.3 -1.7
v 9.4 3.3 -1.8
v 9.4 3.6 -1.7
v 9.4 3.6 -1.8
v 9.4 3.7 -1.7
v 9.4 3.7 -1.8
v 9.4 3.8 -1.7
v 9.4 3.8 -1.8
v 9.6 3.3 -1.7
v 9.6 3.3 -1.8
v 9.6 3.8 -1.7
v 9.6 3.8 -1.8
v 9.7 3.8 -1.8
v 9.7 3.8 -1.9
v 9.7 3.9 -1.8
v 9.7 3.9 -1.9
v 9.8 3.2 -1.7
v 9.8 3.2 -1.8
v 9.8 3.3 -1.7
v 9.8 3.3 -1.8
v 9.8 3.4 -1.8
v 9.8 3.4 -1.9
v 9.8 3.8 -1.8
v 9.8 3.8 -1.9
v 9.9 3.3 -1.8
v 9.9 3.3 -1.9
v 9.9 3.4 -1.8
v 9.9 3.4 -1.9
v 10 3 -1.8
v 10 3 -1.9
v 10 3.3 -1.8
v 10 3.3 -1.9
v 9.2 3.2 -1.7
v 9.2 3.3 -1.7
v 9.3 3.6 -1.7
v 9.3 3.7 -1.7
v 9.4 3.3 -1.7
v 9.4 3.6 -1.7
v 9.4 3.7 -1.7
v 9.4 3.8 -1.7
v 9.6 3.3 -1.7
v 9.6 3.8 -1.7
v 9.8 3.2 -1.7
v 9.8 3.3 -1.7
v 9.1 3.1 -1.8
v 9.1 3.4 -1.8
v 9.2 3 -1.8
v 9.2 3.1 -1.8
v 9.2 3.2 -1.8
v 9.2 3.3 -1.8
v 9.2 3.5 -1.8
v 9.2 3.8 -1.8
v 9.3 3.4 -1.8
v 9.3 3.5 -1.8
v 9.3 3.6 -1.8
v 9.3 3.7 -1.8
v 9.3 3.8 -1.8
v 9.3 3.9 -1.8
v 9.4 3.3 -1.8
v 9.4 3.6 -1.8
v 9.4 3.7 -1.8
v 9.4 3.8 -1.8
v 9.6 3.3 -1.8
v 9.6 3.8 -1.8
v 9.7 3.4 -1.8
v 9.7 3.8 -1.8
v 9.7 3.9 -1.8
v 9.8 3.2 -1.8
v 9.8 3.3 -1.8
v 9.8 3.4 -1.8
v 9.8 3.8 -1.8
v 9.9 3.1 -1.8
v 9.9 3.3 -1.8
v 9.9 3.4 -1.8
v 10 3 -1.8
v 10 3.3 -1.8
v 9.1 3.1 -1.9
v 9.1 3.4 -1.9
v 9.2 3 -1.9
v 9.2 3.1 -1.9
v 9.2 3.2 -1.9
v 9.2 3.3 -1.9
v 9.2 3.5 -1.9
v 9.2 3.8 -1.9
v 9.3 3.4 -1.9
v 9.3 3.5 -1.9
v 9.3 3.6 -1.9
v 9.3 3.7 -1.9
v 9.3 3.8 -1.9
v 9.3 3.9 -1.9
v 9.4 3.3 -1.9
v 9.4 3.6 -1.9
v 9.4 3.7 -1.9
v 9.4 3.8 -1.9
v 9.6 3.3 -1.9
v 9.6 3.8 -1.9
v 9.7 3.4 -1.9
v 9.7 3.8 -1.9
v 9.7 3.9 -1.9
v 9.8 3.2 -1.9
v 9.8 3.3 -1.9
v 9.8 3.4 -1.9
v 9.8 3.8 -1.9
v 9.9 3.1 -1.9
v 9.9 3.3 -1.9
v 9.9 3.4 -1.9
v 10 3 -1.9
v 10 3.3 -1.9
v 9.2 3 -1.8
v 10 3 -1.8
v 9.2 3 -1.9
v 10 3 -1.9
v 9.1 3.1 -1.8
v 9.2 3.1 -1.8
v 9.1 3.1 -1.9
v 9.2 3.1 -1.9
v 9.2 3.2 -1.7
v 9.8 3.2 -1.7
v 9.2 3.2 -1.8
v 9.8 3.2 -1.8
v 9.2 3.5 -1.8
v 9.3 3.5 -1.8
v 9.2 3.5 -1.9
v 9.3 3.5 -1.9
v 9.3 3.6 -1.7
v 9.4 3.6 -1.7
v 9.3 3.6 -1.8
v 9.4 3.6 -1.8
v 9.2 3.3 -1.7
v 9.4 3.3 -1.7
v 9.6 3.3 -1.7
v 9.8 3.3 -1.7
v 9.2 3.3 -1.8
v 9.4 3.3 -1.8
v 9.6 3.3 -1.8
v 9.8 3.3 -1.8
v 9.9 3.3 -1.8
v 10 3.3 -1.8
v 9.9 3.3 -1.9
v 10 3.3 -1.9
v 9.1 3.4 -1.8
v 9.3 3.4 -1.8
v 9.8 3.4 -1.8
v 9.9 3.4 -1.8
v 9.1 3.4 -1.9
v 9.3 3.4 -1.9
v 9.8 3.4 -1.9
v 9.9 3.4 -1.9
v 9.3 3.7 -1.7
v 9.4 3.7 -1.7
v 9.3 3.7 -1.8
v 9.4 3.7 -1.8
v 9.4 3.8 -1.7
v 9.6 3.8 -1.7
v 9.2 3.8 -1.8
v 9.3 3.8 -1.8
v 9.4 3.8 -1.8
v 9.6 3.8 -1.8
v 9.7 3.8 -1.8
v 9.8 3.8 -1.8
v 9.2 3.8 -1.9
v 9.3 3.8 -1.9
v 9.7 3.8 -1.9
v 9.8 3.8 -1.9
v 9.3 3.9 -1.8
v 9.7 3.9 -1.8
v 9.3 3.9 -1.9
v 9.7 3.9 -1.9

# faces
f 3/2/1 2/2/1 1/2/1
f 4/2/1 2/2/1 3/2/1
f 7/3/1 6/3/1 5/3/1
f 8/3/1 6/3/1 7/3/1
f 11/1/1 10/1/1 9/1/1
f 12/1/1 10/1/1 11/1/1
f 15/2/1 14/2/1 13/2/1
f 16/2/1 14/2/1 15/2/1
f 19/2/1 18/2/1 17/2/1
f 20/2/1 18/2/1 19/2/1
f 23/1/1 22/1/1 21/1/1
f 24/1/1 22/1/1 23/1/1
f 27/2/1 26/2/1 25/2/1
f 28/2/1 26/2/1 27/2/1
f 31/1/1 30/1/1 29/1/1
f 32/1/1 30/1/1 31/1/1
f 35/1/1 34/1/1 33/1/1
f 36/1/1 34/1/1 35/1/1
f 37/1/2 38/1/2 39/1/2
f 39/1/2 38/1/2 40/1/2
f 41/2/2 42/2/2 43/2/2
f 43/2/2 42/2/2 44/2/2
f 45/1/2 46/1/2 47/1/2
f 47/1/2 46/1/2 48/1/2
f 49/3/2 50/3/2 51/3/2
f 51/3/2 50/3/2 52/3/2
f 53/2/2 54/2/2 55/2/2
f 55/2/2 54/2/2 56/2/2
f 57/3/2 58/3/2 59/3/2
f 59/3/2 58/3/2 60/3/2
f 65/1/3 62/1/3 61/1/3
f 66/1/3 64/1/3 63/1/3
f 67/1/3 64/1/3 66/1/3
f 69/1/3 65/1/3 61/1/3
f 69/1/3 68/1/3 67/1/3
f 69/1/3 67/1/3 66/1/3
f 69/1/3 66/1/3 65/1/3
f 70/1/3 68/1/3 69/1/3
f 71/1/3 69/1/3 61/1/3
f 72/1/3 69/1/3 71/1/3
f 76/2/3 74/2/3 73/2/3
f 77/2/3 74/2/3 76/2/3
f 78/2/3 74/2/3 77/2/3
f 81/2/3 74/2/3 78/2/3
f 82/2/3 80/2/3 79/2/3
f 83/2/3 80/2/3 82/2/3
f 84/2/3 80/2/3 83/2/3
f 85/2/3 80/2/3 84/2/3
f 87/2/3 81/2/3 78/2/3
f 87/2/3 82/2/3 81/2/3
f 87/2/3 83/2/3 82/2/3
f 88/2/3 83/2/3 87/2/3
f 89/2/3 86/2/3 85/2/3
f 89/2/3 85/2/3 84/2/3
f 90/2/3 86/2/3 89/2/3
f 92/2/3 86/2/3 90/2/3
f 93/2/3 92/2/3 91/2/3
f 94/2/3 86/2/3 92/2/3
f 94/2/3 92/2/3 93/2/3
f 95/2/3 86/2/3 94/2/3
f 96/2/3 77/2/3 76/2/3
f 97/2/3 93/2/3 91/2/3
f 98/3/3 94/3/3 93/3/3
f 98/2/3 93/2/3 97/2/3
f 99/3/3 94/3/3 98/3/3
f 100/3/3 76/3/3 75/3/3
f 100/2/3 96/2/3 76/2/3
f 100/2/3 98/2/3 97/2/3
f 100/2/3 97/2/3 96/2/3
f 101/2/3 98/2/3 100/2/3
f 102/2/3 98/2/3 101/2/3
f 103/3/3 100/3/3 75/3/3
f 103/3/3 101/3/3 100/3/3
f 104/3/3 101/3/3 103/3/3
f 105/2/4 106/2/4 108/2/4
f 108/2/4 106/2/4 109/2/4
f 109/2/4 106/2/4 110/2/4
f 110/2/4 106/2/4 113/2/4
f 111/2/4 112/2/4 114/2/4
f 114/2/4 112/2/4 115/2/4
f 115/2/4 112/2/4 116/2/4
f 116/2/4 112/2/4 117/2/4
f 109/1/4 110/1/4 119/1/4
f 110/2/4 113/2/4 119/2/4
f 113/2/4 114/2/4 119/2/4
f 114/2/4 115/2/4 119/2/4
f 115/1/4 116/1/4 120/1/4
f 119/2/4 115/2/4 120/2/4
f 117/2/4 118/2/4 121/2/4
f 120/1/4 116/1/4 121/1/4
f 116/2/4 117/2/4 121/2/4
f 121/2/4 118/2/4 122/2/4
f 119/1/4 120/1/4 123/1/4
f 109/1/4 119/1/4 123/1/4
f 121/1/4 122/1/4 123/1/4
f 120/1/4 121/1/4 123/1/4
f 122/2/4 118/2/4 124/2/4
f 123/1/4 122/1/4 124/1/4
f 123/2/4 124/2/4 125/2/4
f 124/2/4 118/2/4 126/2/4
f 125/2/4 124/2/4 126/2/4
f 126/2/4 118/2/4 127/2/4
f 108/2/4 109/2/4 128/2/4
f 109/1/4 123/1/4 128/1/4
f 123/2/4 125/2/4 129/2/4
f 128/1/4 123/1/4 129/1/4
f 125/3/4 126/3/4 130/3/4
f 129/2/4 125/2/4 130/2/4
f 130/3/4 126/3/4 131/3/4
f 107/3/4 108/3/4 132/3/4
f 128/2/4 129/2/4 132/2/4
f 129/2/4 130/2/4 132/2/4
f 108/2/4 128/2/4 132/2/4
f 132/2/4 130/2/4 133/2/4
f 133/2/4 130/2/4 134/2/4
f 107/3/4 132/3/4 135/3/4
f 132/3/4 133/3/4 135/3/4
f 135/3/4 133/3/4 136/3/4
f 139/3/5 138/3/5 137/3/5
f 140/3/5 138/3/5 139/3/5
f 143/2/5 142/2/5 141/2/5
f 144/2/5 142/2/5 143/2/5
f 147/1/5 146/1/5 145/1/5
f 148/1/5 146/1/5 147/1/5
f 151/2/5 150/2/5 149/2/5
f 152/2/5 150/2/5 151/2/5
f 155/1/5 154/1/5 153/1/5
f 156/1/5 154/1/5 155/1/5
f 157/1/6 158/1/6 161/1/6
f 161/1/6 158/1/6 162/1/6
f 159/1/6 160/1/6 163/1/6
f 163/1/6 160/1/6 164/1/6
f 165/3/6 166/3/6 167/3/6
f 167/3/6 166/3/6 168/3/6
f 169/2/6 170/2/6 173/2/6
f 173/2/6 170/2/6 174/2/6
f 171/2/6 172/2/6 175/2/6
f 175/2/6 172/2/6 176/2/6
f 177/1/6 178/1/6 179/1/6
f 179/1/6 178/1/6 180/1/6
f 181/1/6 182/1/6 185/1/6
f 185/1/6 182/1/6 186/1/6
f 183/2/6 184/2/6 189/2/6
f 189/2/6 184/2/6 190/2/6
f 187/3/6 188/3/6 191/3/6
f 191/3/6 188/3/6 192/3/6
f 193/2/6 194/2/6 195/2/6
f 195/2/6 194/2/6 196/2/6
